<?xml version="1.0" encoding="UTF-8"?><svg xmlns="http://www.w3.org/2000/svg" viewBox="0 0 1080 821.53"><defs><style>.d{fill:#fff;}.e,.f{fill:#fbbcb0;}.g{fill:#a40001;}.f{opacity:1;}</style></defs><g id="a"/><g id="b"/><g id="c"><g><polygon class="f" points="540 654.17 489.35 654.17 462.25 654.17 435.15 677.79 412.01 700.75 388.93 725.87 388.93 771.18 364.88 771.18 364.88 791.44 44.89 791.44 44.89 768.64 73.38 768.64 73.38 746.2 95.81 746.2 95.81 723.77 118.25 723.77 118.25 702.58 185.83 702.58 175.59 656.53 151.41 656.53 151.41 578.57 175.35 578.57 175.35 554.72 198.67 554.72 198.67 532.77 221.7 532.54 221.7 508.04 244.57 508.04 267.75 467.35 351.76 466.83 408.15 467.13 436.2 467.13 493.19 466.83 540 563.63 540 654.17"/><polygon class="e" points="153.7 220.39 130.24 220.39 107.39 240.72 107.39 263.57 130.85 263.57 153.7 240.72 153.7 220.39"/><polygon class="e" points="153.56 177.21 193.14 177.21 193.14 158.93 216.1 158.93 216.1 113.36 239.23 113.36 239.23 91.58 216.1 91.58 216.1 71.09 193.63 71.09 193.63 48.81 123.53 48.81 123.53 71.09 89.88 71.09 89.88 93.52 53.92 93.52 53.92 147.46 53.92 169.5 113.19 177.21 153.56 177.21"/><polygon class="e" points="540 414.9 540 190.66 462.86 91.58 431.37 91.58 391.42 129.73 347.39 116.67 298.26 116.67 298.26 138.38 277.09 138.38 277.09 158.05 256.27 158.05 256.27 177.21 256.27 202.37 300.84 319.91 383.55 388.35 448.19 414.1 540 414.9"/><polygon class="d" points="540 365.52 540 389.86 448.19 389.86 448.19 365.52 435.87 365.52 383.55 365.89 383.55 319.54 383.55 295.92 356.45 295.92 356.45 262.7 382.47 262.7 382.47 282.58 409.47 282.58 409.47 289.85 462.86 289.85 522.78 289.85 540 365.52"/><polygon class="d" points="523.03 190.66 483.86 190.66 483.86 228.45 522.75 228.45 523.03 190.66"/><polygon class="g" points="540 289.85 522.78 289.85 522.78 318.51 502.85 318.51 502.85 343.68 522.81 343.68 522.81 365.52 540 365.52 540 289.85"/><rect class="g" x="510.22" y="246.73" width="29.78" height="18.69"/><polygon class="g" points="540 190.66 523.03 190.66 523.03 169.15 498.45 169.15 498.45 150.46 478.22 150.46 478.22 113.6 462.86 113.6 462.86 91.58 431.37 91.58 431.37 113.34 412.42 113.34 412.42 129.73 391.42 129.73 391.42 150.98 412.93 150.98 412.93 200.65 347.39 200.65 347.39 116.67 366.84 116.67 366.84 94.9 389.89 94.9 389.89 74.68 412.93 74.68 412.93 53.17 435.72 53.17 435.72 31.92 540 31.92 540 190.66"/><polygon class="g" points="462.86 365.52 435.87 365.52 435.87 342.61 408.47 342.61 408.47 318.82 435.66 318.82 435.66 289.85 462.86 289.85 462.86 318.18 489.62 318.18 489.62 344.1 462.89 344.1 462.86 365.52"/><rect class="g" x="356.45" y="295.92" width="27.1" height="23.61"/><polygon class="g" points="153.7 197.71 153.7 220.39 130.24 220.39 130.24 240.72 107.39 240.72 107.39 263.57 14.18 263.57 14.18 219.77 34.49 219.77 34.49 147.46 54.77 147.46 54.77 169.5 75.69 169.5 75.69 154.38 113.19 154.38 113.19 177.21 153.56 177.21 153.7 197.71"/><path class="g" d="M448.19,414.1v-25.76h-64.64v-22.46h-28.65v-23.36h-25.31v-22.61h-28.75v-90.89h28.45v-26.65h-72.92v-25.16h-22.76v20.5h-79.9v43.01h-22.85v22.85H14.18v15.59h19.36v18.28h20.7v18.82h38.44v19.36h20.16v18.01h43.28v19.09h42.74v18.55h23.39v19.44h22.31v121.83h-22.87v22.13h-23.03v23.92h-23.32v34.19l118.15-.81v-27.69h30.38v27.69h-30.38l-117.91,.81v112.32h27.83v19.66h71.33v-19.83h60.19v25.57h30.79v-25.92h46.28v-23.83h23.14v-22.96h-51.49v-48.54h51.77v-22.63h48.48v-17.7h30.2v-25.29h25.89v-149.53h-91.81Zm-183.13,170.19v-27.38h27.9v27.38h-27.9Zm58.82-27.96h-30.92v-58.07h-25.21v-30.92h25.75v30.92h30.38v58.07Zm169.3,11.54h-25.19v21.68h-116.22v-63.51h29.11v-31.47h-29.11v-27.74h29.1v27.74l27.29-.23v-27.21h28.04v29.25h27.44v-29.55h29.55v96.8l-.02,4.24Z"/><rect class="g" x="118.25" y="723.77" width="22.43" height="22.43"/><rect class="g" x="73.38" y="768.11" width="22.43" height="22.43"/><rect class="g" x="95.81" y="746.2" width="22.43" height="22.43"/><rect class="g" x="297.75" y="750.5" width="37.92" height="22.43"/><rect class="g" x="134.75" y="138.38" width="22.43" height="22.43"/><rect class="g" x="112.32" y="115.95" width="22.43" height="22.43"/><rect class="g" x="89.88" y="93.52" width="22.43" height="22.43"/><rect class="g" x="134.75" y="71.09" width="22.43" height="22.43"/><rect class="g" x="156.39" y="93.52" width="22.43" height="44.87"/><rect class="g" x="178.83" y="113.36" width="37.27" height="25.02"/><rect x="500.31" y="206.02" width="22.43" height="22.43"/><rect class="g" x="408.92" y="541.69" width="27.1" height="23.61"/><rect class="g" x="435.15" y="654.17" width="27.1" height="23.61"/><rect class="g" x="462.25" y="630.56" width="27.1" height="23.61"/><rect class="g" x="513.98" y="617.59" width="26.02" height="36.58"/><polygon class="f" points="540 654.17 590.65 654.17 617.75 654.17 644.85 677.79 667.99 700.75 691.07 725.87 691.07 771.18 715.12 771.18 715.12 791.44 1035.11 791.44 1035.11 768.64 1006.62 768.64 1006.62 746.2 984.19 746.2 984.19 723.77 961.75 723.77 961.75 702.58 894.17 702.58 904.41 656.53 928.59 656.53 928.59 578.57 904.65 578.57 904.65 554.72 881.33 554.72 881.33 532.77 858.3 532.54 858.3 508.04 835.43 508.04 812.25 467.35 728.24 466.83 671.85 467.13 643.8 467.13 586.81 466.83 540 563.63 540 654.17"/><polygon class="e" points="926.3 220.39 949.76 220.39 972.61 240.72 972.61 263.57 949.15 263.57 926.3 240.72 926.3 220.39"/><polygon class="e" points="926.44 177.21 886.86 177.21 886.86 158.93 863.9 158.93 863.9 113.36 840.77 113.36 840.77 91.58 863.9 91.58 863.9 71.09 886.37 71.09 886.37 48.81 956.47 48.81 956.47 71.09 990.12 71.09 990.12 93.52 1026.08 93.52 1026.08 147.46 1026.08 169.5 966.81 177.21 926.44 177.21"/><polygon class="e" points="540 414.9 540 190.66 617.14 91.58 648.63 91.58 688.58 129.73 732.61 116.67 781.74 116.67 781.74 138.38 802.91 138.38 802.91 158.05 823.73 158.05 823.73 177.21 823.73 202.37 779.16 319.91 696.45 388.35 631.81 414.1 540 414.9"/><polygon class="d" points="540 365.52 540 389.86 631.81 389.86 631.81 365.52 644.13 365.52 696.45 365.89 696.45 319.54 696.45 295.92 723.55 295.92 723.55 262.7 697.53 262.7 697.53 282.58 670.53 282.58 670.53 289.85 617.14 289.85 557.22 289.85 540 365.52"/><polygon class="d" points="556.97 190.66 596.14 190.66 596.14 228.45 557.25 228.45 556.97 190.66"/><polygon class="g" points="540 289.85 557.22 289.85 557.22 318.51 577.15 318.51 577.15 343.68 557.19 343.68 557.19 365.52 540 365.52 540 289.85"/><rect class="g" x="540" y="246.73" width="29.78" height="18.69"/><polygon class="g" points="540 190.66 556.97 190.66 556.97 169.15 581.55 169.15 581.55 150.46 601.78 150.46 601.78 113.6 617.14 113.6 617.14 91.58 648.63 91.58 648.63 113.34 667.58 113.34 667.58 129.73 688.58 129.73 688.58 150.98 667.07 150.98 667.07 200.65 732.61 200.65 732.61 116.67 713.16 116.67 713.16 94.9 690.11 94.9 690.11 74.68 667.07 74.68 667.07 53.17 644.28 53.17 644.28 31.92 540 31.92 540 190.66"/><polygon class="g" points="617.14 365.52 644.13 365.52 644.13 342.61 671.53 342.61 671.53 318.82 644.34 318.82 644.34 289.85 617.14 289.85 617.14 318.18 590.38 318.18 590.38 344.1 617.11 344.1 617.14 365.52"/><rect class="g" x="696.45" y="295.92" width="27.1" height="23.61"/><polygon class="g" points="926.3 197.71 926.3 220.39 949.76 220.39 949.76 240.72 972.61 240.72 972.61 263.57 1065.82 263.57 1065.82 219.77 1045.51 219.77 1045.51 147.46 1025.23 147.46 1025.23 169.5 1004.31 169.5 1004.31 154.38 966.81 154.38 966.81 177.21 926.44 177.21 926.3 197.71"/><path class="g" d="M540,414.1v149.53h25.89v25.29h30.2v17.7h48.48v22.63h51.77v48.54h-51.49v22.96h23.14v23.83h46.28v25.92h30.79v-25.57h60.19v19.83h71.33v-19.66h27.83v-112.32l-117.91-.81h-30.38v-27.69h30.38v27.69l118.15,.81v-34.19h-23.32v-23.92h-23.03v-22.13h-22.87v-121.83h22.31v-19.44h23.39v-18.55h42.74v-19.09h43.28v-18.01h20.16v-19.36h38.44v-18.82h20.7v-18.28h19.36v-15.59h-116.67v-22.85h-22.85v-43.01h-79.9v-20.5h-22.76v25.16h-72.92v26.65h28.45v90.89h-28.75v22.61h-25.31v23.36h-28.65v22.46h-64.64v25.76h-91.81Zm247.04,170.19v-27.38h27.9v27.38h-27.9Zm-30.92-86.03h30.38v-30.92h25.75v30.92h-25.21v58.07h-30.92v-58.07Zm-169.32,65.37v-96.8h29.55v29.55h27.44v-29.25h28.04v27.21l27.28,.23v-27.74h29.11v27.74h-29.11v31.47h29.11v63.51h-116.22v-21.68h-25.19l-.02-4.24Z"/><rect class="g" x="939.32" y="723.77" width="22.43" height="22.43" transform="translate(1901.08 1469.97) rotate(-180)"/><rect class="g" x="984.19" y="768.11" width="22.43" height="22.43" transform="translate(1990.81 1558.66) rotate(-180)"/><rect class="g" x="961.75" y="746.2" width="22.43" height="22.43" transform="translate(1945.94 1514.84) rotate(-180)"/><rect class="g" x="744.33" y="750.5" width="37.92" height="22.43" transform="translate(1526.58 1523.44) rotate(-180)"/><rect class="g" x="922.82" y="138.38" width="22.43" height="22.43" transform="translate(1868.07 299.2) rotate(-180)"/><rect class="g" x="945.25" y="115.95" width="22.43" height="22.43" transform="translate(1912.93 254.34) rotate(-180)"/><rect class="g" x="967.68" y="93.52" width="22.43" height="22.43" transform="translate(1957.8 209.47) rotate(-180)"/><rect class="g" x="922.82" y="71.09" width="22.43" height="22.43" transform="translate(1868.07 164.6) rotate(-180)"/><rect class="g" x="901.17" y="93.52" width="22.43" height="44.87" transform="translate(1824.78 231.9) rotate(-180)"/><rect class="g" x="863.9" y="113.36" width="37.27" height="25.02" transform="translate(1765.08 251.75) rotate(-180)"/><rect x="557.25" y="206.02" width="22.43" height="22.43" transform="translate(1136.94 434.46) rotate(-180)"/><rect class="g" x="643.97" y="541.69" width="27.1" height="23.61"/><rect class="g" x="617.75" y="654.17" width="27.1" height="23.61"/><rect class="g" x="590.65" y="630.56" width="27.1" height="23.61"/><rect class="g" x="540" y="617.59" width="26.02" height="36.58"/></g></g></svg>