<?xml version="1.0" encoding="UTF-8"?><svg xmlns="http://www.w3.org/2000/svg" viewBox="0 0 1080 821.53"><defs><style>.d{fill:#f3ae65;}.e{fill:#ed612b;}.f{fill:#fff;}.g{fill:#9c1f14;}</style></defs><g id="a"/><g id="b"/><g id="c"><g><polygon class="d" points="529.36 136.69 550.64 136.68 550.62 626.52 529.38 626.54 529.36 136.69"/><polygon class="g" points="529.36 42.26 550.64 42.25 550.62 136.67 529.38 136.68 529.36 42.26"/><polygon class="d" points="529.36 626.54 349.9 637.16 301.3 442.49 295.34 211.65 295.34 158.45 315.03 158.45 314.96 138.04 369.29 138.04 390.27 138.04 390.27 116.25 411.51 116.25 464.53 93.71 506.98 93.71 506.98 115.83 529.36 115.83 529.36 626.54"/><polygon class="g" points="529.36 115.83 506.98 115.83 506.98 93.71 464.53 93.71 464.53 42.26 529.36 42.26 529.36 115.83"/><polygon class="d" points="60.29 786.25 60.29 765.01 91.91 765.01 91.91 743.58 113.15 743.58 113.15 722.34 134.39 722.34 368.59 722.34 368.59 765.01 347.94 765.01 347.94 786.25 60.29 786.25"/><polygon class="g" points="155.64 679.71 155.64 722.34 389.7 722.34 389.7 701.03 410.94 701.03 410.94 679.71 432.18 679.71 432.18 647.78 508.12 647.78 508.12 626.54 410.94 626.54 410.94 605.3 389.7 605.3 389.7 563.54 369.29 563.54 369.29 531.09 347.58 531.09 347.58 509.85 251.51 509.85 251.51 531.09 230.27 531.09 230.27 563.33 209.02 563.33 209.02 584.58 176.88 584.58 176.88 605.82 155.64 605.82 155.64 679.71"/><rect class="g" x="411.51" y="488.6" width="21.24" height="21.24"/><rect class="g" x="390.27" y="467.36" width="21.24" height="21.24"/><rect class="g" x="411.51" y="446.12" width="21.24" height="21.24"/><rect class="g" x="230.04" y="446.12" width="160.24" height="63.73"/><rect class="g" x="156.83" y="467.36" width="84.06" height="21.24"/><rect class="g" x="135.59" y="446.12" width="115.83" height="21.24"/><rect class="g" x="114.34" y="424.87" width="254.94" height="21.24"/><rect class="g" x="93.1" y="328.94" width="276.19" height="95.93"/><rect class="e" x="208.97" y="328.94" width="21.24" height="21.24"/><rect class="e" x="230.21" y="350.18" width="42.42" height="21.24"/><rect class="e" x="251.42" y="371.43" width="63.61" height="21.24"/><rect class="e" x="272.63" y="392.67" width="74.69" height="21.24"/><rect class="g" x="135.59" y="307.7" width="254.94" height="21.24"/><rect class="g" x="369.29" y="328.94" width="21.24" height="63.73"/><rect class="g" x="390.27" y="350.18" width="42.49" height="42.49"/><rect class="f" x="486.89" y="136.68" width="42.49" height="53.7"/><rect class="g" x="176.8" y="275.3" width="138.23" height="32.4"/><rect class="g" x="209.3" y="254.05" width="105.73" height="32.4"/><rect class="g" x="252.39" y="232.81" width="62.64" height="32.4"/><rect class="g" x="272.63" y="211.73" width="74.65" height="21.07"/><rect class="e" x="114.34" y="307.7" width="21.24" height="21.24"/><rect class="e" x="135.59" y="275.3" width="41.21" height="32.4"/><rect class="e" x="176.8" y="254.05" width="32.5" height="21.24"/><rect class="e" x="209.3" y="232.81" width="43.13" height="21.24"/><rect class="e" x="252.44" y="211.65" width="20.35" height="21.24"/><rect class="e" x="230.27" y="509.85" width="21.24" height="21.24"/><rect class="e" x="209.02" y="531.09" width="21.24" height="32.24"/><rect class="e" x="176.88" y="563.33" width="32.15" height="21.24"/><rect class="e" x="155.64" y="584.58" width="21.24" height="21.24"/><rect class="e" x="134.39" y="605.82" width="21.24" height="73.89"/><rect class="e" x="347.58" y="509.85" width="21.24" height="21.24"/><rect class="e" x="315.13" y="531.09" width="32.45" height="32.45"/><rect class="e" x="293.88" y="509.85" width="21.24" height="21.24"/><rect class="e" x="389.7" y="563.54" width="21.24" height="41.75"/><rect class="e" x="410.94" y="605.3" width="21.24" height="21.24"/><rect class="e" x="389.7" y="626.54" width="21.24" height="21.24"/><rect class="e" x="432.18" y="584.05" width="33.39" height="21.24"/><rect class="e" x="465.57" y="605.3" width="21.24" height="42.49"/><rect class="e" x="486.88" y="584.05" width="21.24" height="21.24"/><rect class="e" x="508.12" y="605.3" width="21.24" height="42.49"/><rect class="e" x="369.29" y="531.09" width="117.59" height="32.45"/><rect class="e" x="486.88" y="509.85" width="21.24" height="21.24"/><rect class="g" x="293.88" y="743.77" width="21.24" height="21.24"/><rect class="g" x="315.13" y="722.34" width="32.81" height="21.24"/><rect class="g" x="177.51" y="743.77" width="32.01" height="21.24"/><rect class="g" x="209.52" y="722.34" width="63.55" height="21.24"/><rect class="g" x="134.39" y="722.34" width="21.24" height="21.24"/><rect class="e" x="113.15" y="743.77" width="21.24" height="21.24"/><rect class="e" x="91.91" y="765.01" width="21.24" height="21.24"/><rect class="e" x="508.12" y="446.12" width="21.24" height="63.73"/><rect class="e" x="486.88" y="413.1" width="21.24" height="33.01"/><rect class="e" x="486.63" y="72.46" width="20.35" height="21.24"/><rect class="e" x="431.74" y="72.46" width="32.79" height="21.24"/><polygon class="g" points="529.36 446.12 529.36 371.43 432.76 371.43 432.76 413.91 508.12 413.1 508.12 446.12 529.36 446.12"/><rect class="g" x="411.51" y="254.05" width="117.85" height="21.24"/><polygon class="g" points="411.51 307.7 390.53 307.7 390.27 275.3 411.51 275.3 411.51 307.7"/><polygon class="g" points="432.76 211.65 369.29 211.73 369.29 138.04 390.27 138.04 390.27 116.25 411.51 116.25 411.51 93.71 464.53 93.71 464.53 116.07 433.12 116.07 433.12 136.89 411.21 136.89 411.21 158.14 431.74 158.14 432.76 211.65"/><rect class="g" x="508.14" y="158.71" width="21.23" height="31.67"/><rect class="g" x="508.14" y="211.73" width="21.23" height="20.78"/><polygon class="d" points="550.64 626.54 730.1 637.16 778.7 442.49 784.66 211.65 784.66 158.45 764.97 158.45 765.04 138.04 710.71 138.04 689.73 138.04 689.73 116.25 668.49 116.25 615.47 93.7 573.02 93.7 573.02 115.82 550.64 115.82 550.64 626.54"/><polygon class="g" points="550.64 115.82 573.02 115.82 573.02 93.7 615.47 93.7 615.47 42.25 550.64 42.25 550.64 115.82"/><polygon class="d" points="1019.71 786.25 1019.71 765.01 988.09 765.01 988.09 743.58 966.85 743.58 966.85 722.33 945.61 722.33 711.41 722.33 711.41 765.01 732.06 765.01 732.06 786.25 1019.71 786.25"/><polygon class="g" points="924.36 679.71 924.36 722.33 690.3 722.33 690.3 701.02 669.06 701.02 669.06 679.71 647.82 679.71 647.82 647.78 529.36 647.78 529.36 626.54 669.06 626.54 669.06 605.29 690.3 605.29 690.3 563.54 710.71 563.54 710.71 531.09 732.42 531.09 732.42 509.84 828.49 509.84 828.49 531.09 849.73 531.09 849.73 563.33 870.98 563.33 870.98 584.57 903.12 584.57 903.12 605.82 924.36 605.82 924.36 679.71"/><rect class="g" x="647.24" y="488.6" width="21.24" height="21.24" transform="translate(1315.73 998.44) rotate(-180)"/><rect class="g" x="668.49" y="467.36" width="21.24" height="21.24" transform="translate(1358.21 955.96) rotate(-180)"/><rect class="g" x="647.24" y="446.11" width="21.24" height="21.24" transform="translate(1315.73 913.47) rotate(-180)"/><rect class="g" x="689.73" y="446.11" width="160.24" height="63.73" transform="translate(1539.69 955.96) rotate(-180)"/><rect class="g" x="839.11" y="467.36" width="84.06" height="21.24" transform="translate(1762.28 955.96) rotate(-180)"/><rect class="g" x="828.58" y="446.11" width="115.83" height="21.24" transform="translate(1772.99 913.47) rotate(-180)"/><rect class="g" x="710.71" y="424.87" width="254.94" height="21.24" transform="translate(1676.37 870.99) rotate(-180)"/><rect class="g" x="710.71" y="328.94" width="276.19" height="95.93" transform="translate(1697.61 753.81) rotate(-180)"/><rect class="e" x="849.79" y="328.94" width="21.24" height="21.24" transform="translate(1720.81 679.12) rotate(-180)"/><rect class="e" x="807.37" y="350.18" width="42.42" height="21.24" transform="translate(1657.16 721.61) rotate(-180)"/><rect class="e" x="764.97" y="371.42" width="63.61" height="21.24" transform="translate(1593.55 764.09) rotate(-180)"/><rect class="e" x="732.68" y="392.67" width="74.69" height="21.24" transform="translate(1540.05 806.58) rotate(-180)"/><rect class="g" x="689.47" y="307.7" width="254.94" height="21.24" transform="translate(1633.88 636.63) rotate(-180)"/><rect class="g" x="689.47" y="328.94" width="21.24" height="63.73" transform="translate(1400.18 721.61) rotate(-180)"/><rect class="g" x="647.24" y="350.18" width="42.49" height="42.49" transform="translate(1336.97 742.85) rotate(-180)"/><rect class="f" x="550.62" y="136.67" width="42.49" height="53.7" transform="translate(1143.73 327.05) rotate(-180)"/><rect class="g" x="764.97" y="275.29" width="138.23" height="32.4" transform="translate(1668.17 582.99) rotate(-180)"/><rect class="g" x="764.97" y="254.05" width="105.73" height="32.4" transform="translate(1635.66 540.5) rotate(-180)"/><rect class="g" x="764.97" y="232.81" width="62.64" height="32.4" transform="translate(1592.58 498.02) rotate(-180)"/><rect class="g" x="732.72" y="211.73" width="74.65" height="21.07" transform="translate(1540.09 444.54) rotate(-180)"/><rect class="e" x="944.41" y="307.7" width="21.24" height="21.24" transform="translate(1910.07 636.63) rotate(-180)"/><rect class="e" x="903.2" y="275.29" width="41.21" height="32.4" transform="translate(1847.61 582.99) rotate(-180)"/><rect class="e" x="870.7" y="254.05" width="32.5" height="21.24" transform="translate(1773.9 529.34) rotate(-180)"/><rect class="e" x="827.56" y="232.81" width="43.13" height="21.24" transform="translate(1698.26 486.85) rotate(-180)"/><rect class="e" x="807.21" y="211.65" width="20.35" height="21.24" transform="translate(1634.77 444.54) rotate(-180)"/><rect class="e" x="828.49" y="509.84" width="21.24" height="21.24" transform="translate(1678.22 1040.93) rotate(-180)"/><rect class="e" x="849.73" y="531.09" width="21.24" height="32.24" transform="translate(1720.71 1094.42) rotate(-180)"/><rect class="e" x="870.98" y="563.33" width="32.15" height="21.24" transform="translate(1774.1 1147.9) rotate(-180)"/><rect class="e" x="903.12" y="584.57" width="21.24" height="21.24" transform="translate(1827.49 1190.39) rotate(-180)"/><rect class="e" x="924.36" y="605.82" width="21.24" height="73.89" transform="translate(1869.97 1285.52) rotate(-180)"/><rect class="e" x="711.18" y="509.84" width="21.24" height="21.24" transform="translate(1443.6 1040.93) rotate(-180)"/><rect class="e" x="732.42" y="531.09" width="32.45" height="32.45" transform="translate(1497.29 1094.63) rotate(-180)"/><rect class="e" x="764.87" y="509.84" width="21.24" height="21.24" transform="translate(1550.99 1040.93) rotate(-180)"/><rect class="e" x="669.06" y="563.54" width="21.24" height="41.75" transform="translate(1359.37 1168.83) rotate(-180)"/><rect class="e" x="647.82" y="605.29" width="21.24" height="21.24" transform="translate(1316.88 1231.83) rotate(-180)"/><rect class="e" x="669.06" y="626.54" width="21.24" height="21.24" transform="translate(1359.37 1274.32) rotate(-180)"/><rect class="e" x="614.43" y="584.05" width="33.39" height="21.24" transform="translate(1262.25 1189.34) rotate(-180)"/><rect class="e" x="593.19" y="605.29" width="21.24" height="42.49" transform="translate(1207.62 1253.07) rotate(-180)"/><rect class="e" x="571.88" y="584.05" width="21.24" height="21.24" transform="translate(1165 1189.34) rotate(-180)"/><rect class="e" x="550.64" y="605.29" width="21.24" height="42.49" transform="translate(1122.51 1253.07) rotate(-180)"/><rect class="e" x="593.12" y="531.09" width="117.59" height="32.45" transform="translate(1303.83 1094.63) rotate(-180)"/><rect class="e" x="571.88" y="509.84" width="21.24" height="21.24" transform="translate(1165 1040.93) rotate(-180)"/><rect class="g" x="764.87" y="743.76" width="21.24" height="21.24" transform="translate(1550.99 1508.77) rotate(-180)"/><rect class="g" x="732.06" y="722.33" width="32.81" height="21.24" transform="translate(1496.93 1465.91) rotate(-180)"/><rect class="g" x="870.48" y="743.76" width="32.01" height="21.24" transform="translate(1772.97 1508.77) rotate(-180)"/><rect class="g" x="806.93" y="722.33" width="63.55" height="21.24" transform="translate(1677.41 1465.91) rotate(-180)"/><rect class="g" x="924.36" y="722.33" width="21.24" height="21.24" transform="translate(1869.97 1465.91) rotate(-180)"/><rect class="e" x="945.61" y="743.76" width="21.24" height="21.24" transform="translate(1912.46 1508.77) rotate(-180)"/><rect class="e" x="966.85" y="765.01" width="21.24" height="21.24" transform="translate(1954.94 1551.26) rotate(-180)"/><rect class="e" x="529.36" y="446.11" width="42.51" height="63.73"/><rect class="e" x="571.88" y="413.1" width="21.24" height="33.01"/><rect class="e" x="615.47" y="72.46" width="32.79" height="21.24" transform="translate(1263.73 166.16) rotate(-180)"/><polygon class="g" points="529.36 446.11 529.36 371.42 647.24 371.42 647.24 413.91 571.88 413.1 571.88 446.11 529.36 446.11"/><rect class="g" x="529.36" y="254.05" width="139.12" height="21.24"/><polygon class="g" points="668.49 307.7 689.47 307.7 689.73 275.29 668.49 275.29 668.49 307.7"/><polygon class="g" points="647.24 211.65 710.71 211.73 710.71 138.04 689.73 138.04 689.73 116.25 668.49 116.25 668.49 93.7 615.47 93.7 615.47 116.07 646.88 116.07 646.88 136.88 668.79 136.88 668.79 158.14 648.26 158.14 647.24 211.65"/><rect class="g" x="550.64" y="158.71" width="21.23" height="31.67"/><rect class="g" x="529.36" y="211.73" width="42.5" height="20.78"/><rect class="e" x="529.36" y="72.46" width="64.01" height="21.24"/><rect class="g" x="551.76" y="64.6" width="21.23" height="31.67"/></g></g></svg>