<?xml version="1.0" encoding="UTF-8"?><svg id="a" xmlns="http://www.w3.org/2000/svg" viewBox="0 0 150 150"><defs><style>.b{fill:#f6d8ae;}.c{fill:#fff;}.d{fill:#f2bfb3;}.e{fill:#ba5324;}.f{fill:#961c14;}.g{fill:#78d75d;}</style></defs><rect x="0" width="150" height="150"/><polygon class="d" points="122.42 55.13 122.42 49.31 116.87 49.31 116.87 33.19 111.43 33.19 100.37 27.54 84 27.54 73.08 33.19 67.54 33.19 62.16 49.31 62.12 60.51 62.12 66.01 67.64 66.01 67.64 71.48 116.87 71.48 116.87 66.01 122.42 66.01 122.42 55.13"/><polygon class="d" points="56.55 60.51 56.55 49.31 34.75 49.31 34.75 66.03 45.66 66.03 51.11 66.01 51.11 60.51 56.55 60.51"/><polygon class="d" points="62.21 43.94 45.66 43.94 45.66 38.57 40.28 38.57 40.28 22.17 62.21 22.18 62.21 43.94"/><polygon class="c" points="105.97 43.94 78.6 43.94 78.6 38.57 84 38.57 84 33.19 100.37 33.19 100.37 38.57 105.97 38.57 105.97 43.94"/><rect x="84" y="38.57" width="5.44" height="5.37"/><rect x="94.93" y="38.57" width="5.44" height="5.37"/><rect class="g" x="62.16" width="5.44" height="5.37"/><rect class="g" x="29.32" width="10.86" height="5.37"/><rect class="b" x="45.66" y="43.94" width="5.44" height="5.37"/><rect class="e" x="51.11" y="43.94" width="5.44" height="5.37"/><rect class="b" x="45.66" width="5.44" height="22.17"/><rect class="e" x="51.11" width="5.44" height="22.17"/><rect class="b" x="45.66" y="109.69" width="5.44" height="40.31"/><rect class="e" x="51.11" y="109.69" width="5.44" height="40.31"/><rect class="b" x="45.66" y="71.54" width="5.44" height="5.37"/><polygon class="c" points="78.63 109.58 78.63 98.85 84.03 98.85 84.03 87.97 100.44 87.97 100.44 82.49 116.88 82.49 116.88 76.93 122.29 76.93 122.29 87.73 116.68 87.73 116.68 93.25 111.2 93.25 111.2 98.77 105.76 98.77 105.76 104.3 94.79 104.3 94.79 109.58 78.63 109.58"/><rect class="f" x="45.66" y="27.82" width="5.44" height="5.37"/><rect class="f" x="51.11" y="33.19" width="5.44" height="5.37"/><rect class="f" x="45.66" y="55.13" width="5.44" height="5.37"/><rect class="f" x="67.64" y="55.13" width="5.44" height="5.37"/><rect class="f" x="111.43" y="55.13" width="5.44" height="5.37"/><rect class="f" x="111.43" y="43.94" width="5.44" height="5.37"/><rect class="f" x="84" y="43.94" width="16.37" height="5.37"/><rect class="f" x="73.08" y="49.31" width="10.96" height="5.82"/><rect class="f" x="100.37" y="49.31" width="10.96" height="5.82"/><polygon class="f" points="73.08 49.31 56.55 49.31 56.55 43.94 62.21 43.94 62.21 33.19 67.54 33.19 67.54 43.94 73.08 43.94 73.08 49.31"/><polygon class="f" points="105.97 38.57 105.97 33.19 100.37 33.19 100.37 27.54 84 27.54 84 33.19 78.6 33.19 78.6 38.57 73.08 38.57 73.08 27.54 78.6 27.54 78.6 22.18 105.97 22.18 105.97 27.63 111.3 27.63 111.3 38.57 105.97 38.57"/><polygon class="f" points="127.76 55.13 122.42 55.13 122.42 66.01 116.87 66.01 116.87 71.48 67.64 71.48 67.64 66.01 62.12 66.01 62.12 60.51 51.11 60.51 51.11 66.01 45.66 66.01 45.66 71.54 56.62 71.54 56.62 76.91 62.16 76.91 62.16 82.42 56.62 82.42 56.62 76.91 45.66 76.91 45.66 82.42 40.28 82.42 40.28 93.22 45.82 93.22 45.82 98.96 40.28 98.96 40.28 104.23 51.11 104.23 51.11 109.69 62.06 109.69 62.06 98.79 67.69 98.79 67.69 104.23 78.63 104.23 78.63 98.85 84.03 98.85 84.03 87.97 100.44 87.97 100.44 82.49 116.88 82.49 116.88 76.93 122.29 76.93 122.29 71.44 127.76 71.44 127.76 55.13"/><rect class="d" x="51.11" y="71.54" width="5.51" height="5.37"/><rect class="d" x="56.62" y="76.91" width="5.54" height="5.51"/><rect class="d" x="34.77" y="98.86" width="5.51" height="5.37"/><rect class="d" x="40.28" y="104.32" width="10.86" height="5.37"/></svg>